<svg width="24" height="24" viewBox="0 0 24 24" fill="none" xmlns="http://www.w3.org/2000/svg">
<path d="M12 6C8.68431 6 6 8.68724 6 12C6 15.3157 8.68724 18 12 18C15.3157 18 18 15.3128 18 12C18 8.68431 15.3128 6 12 6ZM12 15.8944C9.84768 15.8944 8.10555 14.1513 8.10555 12C8.10555 9.84865 9.84865 8.10555 12 8.10555C14.1513 8.10555 15.8944 9.84865 15.8944 12C15.8954 14.1513 14.1523 15.8944 12 15.8944Z" fill="#212121" fill-opacity="0.8"/>
<path d="M16.5359 1.0691C14.5119 0.974688 9.49863 0.979271 7.47279 1.0691C5.69263 1.15252 4.12238 1.58243 2.85646 2.84832C0.740792 4.96395 1.01121 7.81474 1.01121 11.9956C1.01121 16.2745 0.772875 19.0593 2.85646 21.1428C4.98038 23.2658 7.87246 22.9881 12.0039 22.9881C16.2425 22.9881 17.7055 22.9908 19.2043 22.4106C21.242 21.6195 22.7802 19.7981 22.9305 16.5266C23.0259 14.5017 23.0204 9.48946 22.9305 7.46366C22.749 3.60181 20.6765 1.25977 16.5359 1.0691V1.0691ZM19.7396 19.7431C18.3527 21.13 16.4286 21.0063 11.9773 21.0063C7.39396 21.0063 5.55604 21.0741 4.21496 19.7294C2.67038 18.1921 2.94996 15.7236 2.94996 11.9809C2.94996 6.91642 2.43021 3.26906 7.51313 3.00874C8.68096 2.96749 9.02471 2.95374 11.9645 2.95374L12.0057 2.98124C16.8906 2.98124 20.7232 2.46975 20.9533 7.55166C21.0055 8.71122 21.0175 9.05955 21.0175 11.9947C21.0165 16.5247 21.1027 18.3736 19.7396 19.7431V19.7431Z" fill="#212121" fill-opacity="0.8"/>
<path d="M18 7C18.5523 7 19 6.55228 19 6C19 5.44772 18.5523 5 18 5C17.4477 5 17 5.44772 17 6C17 6.55228 17.4477 7 18 7Z" fill="#212121" fill-opacity="0.8"/>
</svg>
