<svg width="24" height="24" viewBox="0 0 24 24" fill="none" xmlns="http://www.w3.org/2000/svg">
<circle cx="12" cy="12" r="11" stroke="#212121" stroke-opacity="0.8" stroke-width="2"/>
<g clip-path="url(#clip0_0_346)">
<path d="M8.23148 6.10938C7.40655 6.10938 6.86719 6.65107 6.86719 7.36305C6.86719 8.05931 7.39048 8.61645 8.19983 8.61645H8.21548C9.05656 8.61645 9.57999 8.05931 9.57999 7.36305C9.56426 6.65107 9.05656 6.10938 8.23148 6.10938Z" fill="#212121" fill-opacity="0.8"/>
<path d="M7.01172 9.60547H9.42335V16.861H7.01172V9.60547Z" fill="#212121" fill-opacity="0.8"/>
<path d="M15.3429 9.4375C14.0419 9.4375 13.1695 10.66 13.1695 10.66V9.60779H10.7578V16.8633H13.1694V12.8115C13.1694 12.5946 13.1851 12.3781 13.2488 12.223C13.4232 11.7898 13.8199 11.3411 14.4862 11.3411C15.3588 11.3411 15.7078 12.0065 15.7078 12.9818V16.8633H18.1193V12.7031C18.1193 10.4745 16.9295 9.4375 15.3429 9.4375Z" fill="#212121" fill-opacity="0.8"/>
</g>
<defs>
<clipPath id="clip0_0_346">
<rect width="12" height="12" fill="white" transform="translate(6.5 5.5)"/>
</clipPath>
</defs>
</svg>
