<svg width="24" height="24" viewBox="0 0 24 24" fill="none" xmlns="http://www.w3.org/2000/svg">
<circle cx="12" cy="12" r="11" stroke="#212121" stroke-opacity="0.8" stroke-width="2"/>
<path fill-rule="evenodd" clip-rule="evenodd" d="M17.0024 7.87623C17.5531 8.02736 17.9869 8.47267 18.1341 9.03817C18.4016 10.0631 18.4016 12.2016 18.4016 12.2016C18.4016 12.2016 18.4016 14.34 18.1341 15.365C17.9869 15.9305 17.5531 16.3758 17.0024 16.527C16.0043 16.8016 12.0016 16.8016 12.0016 16.8016C12.0016 16.8016 7.99887 16.8016 7.00069 16.527C6.44993 16.3758 6.01618 15.9305 5.86898 15.365C5.60156 14.34 5.60156 12.2016 5.60156 12.2016C5.60156 12.2016 5.60156 10.0631 5.86898 9.03817C6.01618 8.47267 6.44993 8.02736 7.00069 7.87623C7.99887 7.60156 12.0016 7.60156 12.0016 7.60156C12.0016 7.60156 16.0043 7.60156 17.0024 7.87623ZM10.7969 10.3984V14.3984L13.9969 12.3985L10.7969 10.3984Z" fill="#212121" fill-opacity="0.8"/>
</svg>
